<svg width="21" height="20" viewBox="0 0 21 20" fill="none" xmlns="http://www.w3.org/2000/svg">
    <path fill-rule="evenodd" clip-rule="evenodd" d="M20.0482 17.875C18.6204 15.4066 16.42 13.6366 13.8522 12.7975C16.463 11.2433 17.7136 8.13638 16.9076 5.2069C16.1016 2.27741 13.4377 0.247449 10.3994 0.247449C7.36108 0.247449 4.6972 2.27741 3.89123 5.2069C3.08526 8.13638 4.33586 11.2433 6.9466 12.7975C4.37879 13.6356 2.17848 15.4056 0.750664 17.875C0.608118 18.1074 0.602941 18.3989 0.737145 18.6363C0.871349 18.8736 1.12379 19.0194 1.39644 19.0171C1.66909 19.0147 1.91899 18.8646 2.0491 18.625C3.81535 15.5725 6.93723 13.75 10.3994 13.75C13.8616 13.75 16.9835 15.5725 18.7497 18.625C18.8798 18.8646 19.1297 19.0147 19.4024 19.0171C19.675 19.0194 19.9275 18.8736 20.0617 18.6363C20.1959 18.3989 20.1907 18.1074 20.0482 17.875ZM5.14941 7C5.14941 4.1005 7.49992 1.75 10.3994 1.75C13.2989 1.75 15.6494 4.1005 15.6494 7C15.6494 9.8995 13.2989 12.25 10.3994 12.25C7.5012 12.2469 5.15251 9.89821 5.14941 7Z" fill="#964F4F"/>
</svg>
