<svg xmlns="http://www.w3.org/2000/svg" width="15.74" height="15.738" viewBox="0 0 15.74 15.738">
    <g id="Group_73823" data-name="Group 73823" transform="translate(-23.529 -1747.959)">
        <path id="Path" d="M0,3.845A4.04,4.04,0,0,1,4.211,0,4.04,4.04,0,0,1,8.422,3.845,4.04,4.04,0,0,1,4.211,7.689,4.04,4.04,0,0,1,0,3.845Z" transform="translate(27.188 1747.959)" fill="#7f1703"/>
        <path id="Path-2" data-name="Path" d="M0,3.59A3.866,3.866,0,0,1,4.092,0h7.555A3.866,3.866,0,0,1,15.74,3.59a1.487,1.487,0,0,1-1.574,1.381H1.574A1.487,1.487,0,0,1,0,3.59Z" transform="translate(23.529 1758.726)" fill="#7f1703"/>
    </g>
</svg>
