<svg xmlns="http://www.w3.org/2000/svg" width="24.2" height="24.268" viewBox="0 0 24.2 24.268">
    <g id="account" transform="translate(0.5 0.5)">
        <path id="Path_77152" data-name="Path 77152" d="M11.6,14.259a5.607,5.607,0,0,1-4.116-1.7,5.607,5.607,0,0,1-1.7-4.116,5.607,5.607,0,0,1,1.7-4.116,5.607,5.607,0,0,1,4.116-1.7,5.607,5.607,0,0,1,4.116,1.7,5.607,5.607,0,0,1,1.7,4.116,5.607,5.607,0,0,1-1.7,4.116A5.607,5.607,0,0,1,11.6,14.259Zm0,2.926a20.658,20.658,0,0,1,4.728.612A14.884,14.884,0,0,1,21.057,19.8Q23.2,21.2,23.2,22.968v2.926H0V22.968Q0,21.2,2.143,19.8A14.884,14.884,0,0,1,6.872,17.8,20.658,20.658,0,0,1,11.6,17.185Z" transform="translate(0 -2.625)" fill="none" stroke="#707070" stroke-width="1"/>
    </g>
</svg>
