<svg id="Cart" xmlns="http://www.w3.org/2000/svg" width="22" height="24" viewBox="0 0 22 24">
    <path id="Cart-2" data-name="Cart" d="M11.073,24h-.145a46.547,46.547,0,0,1-5.94-.215A5.629,5.629,0,0,1,1.27,22.038,5.845,5.845,0,0,1,0,18.075a48.873,48.873,0,0,1,.486-6.033L.5,11.969.817,9.218l.007-.059V9.149A42.994,42.994,0,0,1,1.49,4.621,5.823,5.823,0,0,1,2.972,1.669c.137-.136.276-.262.414-.374A5.618,5.618,0,0,1,6.438.143,40.678,40.678,0,0,1,10.941,0h.119a40.678,40.678,0,0,1,4.5.143,5.618,5.618,0,0,1,3.053,1.152c.137.112.276.238.414.374A5.823,5.823,0,0,1,20.51,4.621a42.994,42.994,0,0,1,.666,4.528v.009l.007.059.319,2.751.009.073A48.874,48.874,0,0,1,22,18.075a5.841,5.841,0,0,1-1.267,3.963,5.629,5.629,0,0,1-3.717,1.747A46.533,46.533,0,0,1,11.073,24ZM11,1.846a40.4,40.4,0,0,0-4.346.131,3.923,3.923,0,0,0-2.131.755c-.1.084-.2.17-.283.257a4.064,4.064,0,0,0-.987,2.066,42.149,42.149,0,0,0-.637,4.381L2.3,12.185a48.157,48.157,0,0,0-.482,5.85,4.1,4.1,0,0,0,.81,2.777,3.943,3.943,0,0,0,2.613,1.145,45.731,45.731,0,0,0,5.762.2,45.731,45.731,0,0,0,5.762-.2,3.943,3.943,0,0,0,2.613-1.145,4.1,4.1,0,0,0,.811-2.777,48.43,48.43,0,0,0-.483-5.85l-.319-2.75a42.508,42.508,0,0,0-.636-4.381,4.073,4.073,0,0,0-.988-2.066c-.086-.087-.181-.173-.283-.257a3.923,3.923,0,0,0-2.131-.755A40.4,40.4,0,0,0,11,1.846Zm0,11.078A4.58,4.58,0,0,1,6.468,8.307V5.846a.907.907,0,1,1,1.813,0V8.307a2.72,2.72,0,1,0,5.438,0V5.846a.907.907,0,1,1,1.813,0V8.307A4.58,4.58,0,0,1,11,12.923Z" transform="translate(0)" fill="#fff"/>
</svg>
