<svg xmlns="http://www.w3.org/2000/svg" width="24.134" height="22.694" viewBox="0 0 24.134 22.694">
    <g id="pricetags-outline" transform="translate(-5.468 -11.66)">
        <path id="Path_79714" data-name="Path 79714" d="M24.655,12.16h-5.9a.694.694,0,0,0-.489.2L6.483,24.146a1.384,1.384,0,0,0,0,1.952l5.612,5.612a1.384,1.384,0,0,0,1.953,0L25.831,19.93a.694.694,0,0,0,.2-.489v-5.9a1.375,1.375,0,0,0-1.377-1.381Z" transform="translate(0 0)" fill="rgba(0,0,0,0)" stroke="#707070" stroke-linecap="round" stroke-linejoin="round" stroke-width="1"/>
        <path id="Path_79715" data-name="Path 79715" d="M123.135,33.47a1.535,1.535,0,1,1,1.535-1.535A1.535,1.535,0,0,1,123.135,33.47Z" transform="translate(-100.94 -15.938)" fill="#707070"/>
        <path id="Path_79716" data-name="Path 79716" d="M87.4,49.585,99.966,37.019a.662.662,0,0,0,.192-.48V30.4" transform="translate(-71.056 -15.938)" fill="rgba(0,0,0,0)" stroke="#707070" stroke-linecap="round" stroke-linejoin="round" stroke-width="1"/>
    </g>
</svg>
