<svg xmlns="http://www.w3.org/2000/svg" width="16.628" height="23.528" viewBox="0 0 16.628 23.528">
    <g id="Group_75719" data-name="Group 75719" transform="translate(1924 -493)">
        <path id="Path_79725" data-name="Path 79725" d="M66,11.314v-4.7a3.615,3.615,0,1,1,7.23,0v4.7" transform="translate(-1985.24 490.5)" fill="none" stroke="#707070" stroke-miterlimit="10" stroke-width="1"/>
        <g id="Path_79724" data-name="Path 79724" transform="translate(-1924 499.585)" fill="none">
            <path d="M.6,0H16.026l.6,14.742a2.312,2.312,0,0,1-2.41,2.2H2.41A2.312,2.312,0,0,1,0,14.742Z" stroke="none"/>
            <path d="M 1.562456130981445 1.000002861022949 L 1.000144958496094 14.75951766967773 C 1.010902404785156 15.41356468200684 1.639184951782227 15.94280338287354 2.409924507141113 15.94280338287354 L 14.21852397918701 15.94280338287354 C 14.9892635345459 15.94280338287354 15.61754608154297 15.41356468200684 15.62830352783203 14.75951766967773 L 15.06599235534668 1.000002861022949 L 1.562456130981445 1.000002861022949 M 0.6024837493896484 3.814697265625e-06 L 16.02596473693848 3.814697265625e-06 L 16.62844467163086 14.7424430847168 C 16.62844467163086 15.95767307281494 15.54949378967285 16.94280242919922 14.21852397918701 16.94280242919922 L 2.409924507141113 16.94280242919922 C 1.078954696655273 16.94280242919922 3.814697265625e-06 15.95767307281494 3.814697265625e-06 14.7424430847168 L 0.6024837493896484 3.814697265625e-06 Z" stroke="none" fill="#707070"/>
        </g>
    </g>
</svg>
