<svg xmlns="http://www.w3.org/2000/svg" width="25.736" height="25.197" viewBox="0 0 25.736 25.197">
    <g id="cart_outline" transform="translate(-2.4 -12)">
        <path id="Path_78257" data-name="Path 78257" d="M6.066,14.032a5.906,5.906,0,0,0-.679-.016H3.408a1.008,1.008,0,0,1,0-2.016H5.452a6.649,6.649,0,0,1,.892.035,3.7,3.7,0,0,1,3.017,2.556c.021.067.039.136.057.208L24.04,16.863l.135.019a6.942,6.942,0,0,1,1.734.378,3.7,3.7,0,0,1,2.217,3.082,6.939,6.939,0,0,1-.193,1.764l-.025.134-.023.126a9.668,9.668,0,0,1-.519,2.072A5.039,5.039,0,0,1,23.9,27.322a9.664,9.664,0,0,1-2.132.133H11.549c.053.277.1.509.157.711a1.744,1.744,0,0,0,.335.738,1.685,1.685,0,0,0,.368.312,1.745,1.745,0,0,0,.783.209c.45.045,1.037.046,1.918.046H25.358a1.008,1.008,0,0,1,0,2.016h-10.3c-.818,0-1.506,0-2.069-.056a3.465,3.465,0,0,1-2.461-1.192,3.7,3.7,0,0,1-.771-1.546c-.148-.545-.261-1.224-.4-2.031l-1.8-10.8a5.9,5.9,0,0,0-.128-.668A1.68,1.68,0,0,0,6.066,14.032ZM11.2,25.439H21.639a8.969,8.969,0,0,0,1.8-.08,3.024,3.024,0,0,0,2.08-1.73,8.976,8.976,0,0,0,.406-1.756,6.387,6.387,0,0,0,.192-1.362,1.68,1.68,0,0,0-1.008-1.4,6.387,6.387,0,0,0-1.352-.251L9.78,16.886Z" transform="translate(0 0)" fill="#fff" fill-rule="evenodd"/>
        <path id="Path_78258" data-name="Path 78258" d="M148.032,165.216a2.016,2.016,0,1,1-2.016-2.016A2.016,2.016,0,0,1,148.032,165.216Z" transform="translate(-121.778 -130.034)" fill="#fff"/>
        <path id="Path_78259" data-name="Path 78259" d="M61.632,165.216a2.016,2.016,0,1,1-2.016-2.016A2.016,2.016,0,0,1,61.632,165.216Z" transform="translate(-47.473 -130.034)" fill="#fff"/>
    </g>
</svg>
