<svg xmlns="http://www.w3.org/2000/svg" width="35" height="35" viewBox="0 0 35 35">
    <g id="Group_73822" data-name="Group 73822" transform="translate(-183 -1734)">
        <circle id="Ellipse_181" data-name="Ellipse 181" cx="15.5" cy="15.5" r="15.5" transform="translate(185 1736)" fill="#7f1703"/>
        <g id="cart_outline" transform="translate(189.112 1732.481)">
            <path id="Path_78257" data-name="Path 78257" d="M4.713,13.282a3.727,3.727,0,0,0-.429-.01H3.036a.636.636,0,0,1,0-1.272h1.29a4.2,4.2,0,0,1,.563.022,2.332,2.332,0,0,1,1.9,1.613c.013.042.025.086.036.131l9.227,1.3.085.012a4.38,4.38,0,0,1,1.094.238,2.332,2.332,0,0,1,1.4,1.945,4.378,4.378,0,0,1-.122,1.113l-.016.085-.015.08a6.1,6.1,0,0,1-.327,1.308,3.18,3.18,0,0,1-2.188,1.82,6.1,6.1,0,0,1-1.345.084H8.173c.033.175.065.321.1.448a1.1,1.1,0,0,0,.212.466,1.063,1.063,0,0,0,.232.2A1.1,1.1,0,0,0,9.21,23c.284.028.654.029,1.21.029h6.466a.636.636,0,0,1,0,1.272h-6.5c-.516,0-.951,0-1.305-.035a2.187,2.187,0,0,1-1.553-.752,2.337,2.337,0,0,1-.486-.976c-.093-.344-.165-.772-.25-1.282L5.659,14.437a3.725,3.725,0,0,0-.08-.421A1.06,1.06,0,0,0,4.713,13.282Zm3.243,7.2H14.54a5.66,5.66,0,0,0,1.136-.05,1.908,1.908,0,0,0,1.313-1.092,5.664,5.664,0,0,0,.256-1.108,4.03,4.03,0,0,0,.121-.859,1.06,1.06,0,0,0-.636-.884,4.03,4.03,0,0,0-.853-.158L7.057,15.083Z" transform="translate(0)" fill="#fff" fill-rule="evenodd"/>
            <path id="Path_78258" data-name="Path 78258" d="M146.544,164.472a1.272,1.272,0,1,1-1.272-1.272A1.272,1.272,0,0,1,146.544,164.472Z" transform="translate(-129.092 -137.844)" fill="#fff"/>
            <path id="Path_78259" data-name="Path 78259" d="M60.144,164.472a1.272,1.272,0,1,1-1.272-1.272A1.272,1.272,0,0,1,60.144,164.472Z" transform="translate(-50.324 -137.844)" fill="#fff"/>
        </g>
        <g id="Ellipse_182" data-name="Ellipse 182" transform="translate(183 1734)" fill="none" stroke="#330803" stroke-width="0.5">
            <circle cx="17.5" cy="17.5" r="17.5" stroke="none"/>
            <circle cx="17.5" cy="17.5" r="17.25" fill="none"/>
        </g>
    </g>
</svg>
