<svg width="21" height="21" viewBox="0 0 21 21" fill="none" xmlns="http://www.w3.org/2000/svg">
    <path fill-rule="evenodd" clip-rule="evenodd" d="M20.8256 4.51906C20.6831 4.34851 20.4723 4.24996 20.25 4.25H5.12625L4.66781 1.73187C4.53823 1.01862 3.91711 0.500105 3.19219 0.5H1.5C1.08579 0.5 0.75 0.835786 0.75 1.25C0.75 1.66421 1.08579 2 1.5 2H3.1875L5.58375 15.1522C5.65434 15.5422 5.82671 15.9067 6.08344 16.2087C5.09996 17.1273 4.97046 18.6409 5.7836 19.7132C6.59675 20.7855 8.08911 21.0692 9.23899 20.37C10.3889 19.6709 10.8238 18.2154 10.2459 17H14.5041C14.3363 17.3513 14.2495 17.7357 14.25 18.125C14.25 19.5747 15.4253 20.75 16.875 20.75C18.3247 20.75 19.5 19.5747 19.5 18.125C19.5 16.6753 18.3247 15.5 16.875 15.5H7.79719C7.43472 15.4999 7.12417 15.2407 7.05937 14.8841L6.76219 13.25H17.6372C18.7246 13.2498 19.6563 12.4721 19.8506 11.4022L20.9906 5.13406C21.0297 4.91473 20.9692 4.68938 20.8256 4.51906ZM9 18.125C9 18.7463 8.49632 19.25 7.875 19.25C7.25368 19.25 6.75 18.7463 6.75 18.125C6.75 17.5037 7.25368 17 7.875 17C8.49632 17 9 17.5037 9 18.125ZM18 18.125C18 18.7463 17.4963 19.25 16.875 19.25C16.2537 19.25 15.75 18.7463 15.75 18.125C15.75 17.5037 16.2537 17 16.875 17C17.4963 17 18 17.5037 18 18.125ZM18.375 11.1341C18.31 11.4917 17.9979 11.7513 17.6344 11.75H6.48938L5.39906 5.75H19.3509L18.375 11.1341Z" fill="#1C0D0D"/>
</svg>
