<svg width="19" height="16" viewBox="0 0 19 16" fill="none" xmlns="http://www.w3.org/2000/svg">
    <path fill-rule="evenodd" clip-rule="evenodd" d="M5.2998 2C5.2998 1.58579 5.63559 1.25 6.0498 1.25H18.0498C18.464 1.25 18.7998 1.58579 18.7998 2C18.7998 2.41421 18.464 2.75 18.0498 2.75H6.0498C5.63559 2.75 5.2998 2.41421 5.2998 2ZM18.0498 7.25H6.0498C5.63559 7.25 5.2998 7.58579 5.2998 8C5.2998 8.41421 5.63559 8.75 6.0498 8.75H18.0498C18.464 8.75 18.7998 8.41421 18.7998 8C18.7998 7.58579 18.464 7.25 18.0498 7.25ZM18.0498 13.25H6.0498C5.63559 13.25 5.2998 13.5858 5.2998 14C5.2998 14.4142 5.63559 14.75 6.0498 14.75H18.0498C18.464 14.75 18.7998 14.4142 18.7998 14C18.7998 13.5858 18.464 13.25 18.0498 13.25ZM1.9248 0.875C1.30348 0.875 0.799805 1.37868 0.799805 2C0.799805 2.62132 1.30348 3.125 1.9248 3.125C2.54612 3.125 3.0498 2.62132 3.0498 2C3.0498 1.37868 2.54612 0.875 1.9248 0.875ZM1.9248 6.875C1.30348 6.875 0.799805 7.37868 0.799805 8C0.799805 8.62132 1.30348 9.125 1.9248 9.125C2.54612 9.125 3.0498 8.62132 3.0498 8C3.0498 7.37868 2.54612 6.875 1.9248 6.875ZM1.9248 12.875C1.30348 12.875 0.799805 13.3787 0.799805 14C0.799805 14.6213 1.30348 15.125 1.9248 15.125C2.54612 15.125 3.0498 14.6213 3.0498 14C3.0498 13.3787 2.54612 12.875 1.9248 12.875Z" fill="#964F4F"/>
</svg>
