<svg xmlns="http://www.w3.org/2000/svg" width="24.201" height="24.201" viewBox="0 0 24.201 24.201">
    <g id="Group_75683" data-name="Group 75683" transform="translate(-46.5 -3584)">
        <path id="Path_79706" data-name="Path 79706" d="M105.289,34.312h7.734a1.289,1.289,0,0,0,1.289-1.289V25.289A1.289,1.289,0,0,0,113.023,24h-7.734A1.289,1.289,0,0,0,104,25.289v7.734A1.289,1.289,0,0,0,105.289,34.312Z" transform="translate(-57 3560.5)" fill="none" stroke="#707070" stroke-width="1"/>
        <path id="Path_79708" data-name="Path 79708" d="M105.289,34.312h7.734a1.289,1.289,0,0,0,1.289-1.289V25.289A1.289,1.289,0,0,0,113.023,24h-7.734A1.289,1.289,0,0,0,104,25.289v7.734A1.289,1.289,0,0,0,105.289,34.312Z" transform="translate(-44.11 3560.5)" fill="none" stroke="#707070" stroke-width="1"/>
        <path id="Path_79707" data-name="Path 79707" d="M105.289,34.312h7.734a1.289,1.289,0,0,0,1.289-1.289V25.289A1.289,1.289,0,0,0,113.023,24h-7.734A1.289,1.289,0,0,0,104,25.289v7.734A1.289,1.289,0,0,0,105.289,34.312Z" transform="translate(-57 3573.39)" fill="none" stroke="#707070" stroke-width="1"/>
        <path id="Path_79709" data-name="Path 79709" d="M105.289,34.312h7.734a1.289,1.289,0,0,0,1.289-1.289V25.289A1.289,1.289,0,0,0,113.023,24h-7.734A1.289,1.289,0,0,0,104,25.289v7.734A1.289,1.289,0,0,0,105.289,34.312Z" transform="translate(-44.11 3573.39)" fill="none" stroke="#707070" stroke-width="1"/>
    </g>
</svg>
