<svg id="Group_73830" data-name="Group 73830" xmlns="http://www.w3.org/2000/svg" width="40" height="40" viewBox="0 0 40 40">
    <g id="Ellipse_152" data-name="Ellipse 152" fill="#fff" stroke="#7f1703" stroke-width="0.5">
        <circle cx="20" cy="20" r="20" stroke="none"/>
        <circle cx="20" cy="20" r="19.75" fill="none"/>
    </g>
    <path id="headphones" d="M11.988,11.4V7.975a5.138,5.138,0,1,0-10.275,0V11.4A.859.859,0,0,1,0,11.4V7.975a6.85,6.85,0,0,1,13.7,0V11.4A.859.859,0,0,1,11.988,11.4ZM3,8.831h.856a.428.428,0,0,1,.428.428v4.281a.428.428,0,0,1-.428.428H3a.428.428,0,0,1-.428-.428V9.259A.428.428,0,0,1,3,8.831Zm6.85,0H10.7a.428.428,0,0,1,.428.428v4.281a.428.428,0,0,1-.428.428H9.847a.428.428,0,0,1-.428-.428V9.259A.428.428,0,0,1,9.847,8.831Z" transform="translate(13.15 12.453)"/>
</svg>
