<svg id="Group_73832" data-name="Group 73832" xmlns="http://www.w3.org/2000/svg" width="40" height="40" viewBox="0 0 40 40">
    <g id="Ellipse_150" data-name="Ellipse 150" fill="#fff" stroke="#7f1703" stroke-width="0.5">
        <circle cx="20" cy="20" r="20" stroke="none"/>
        <circle cx="20" cy="20" r="19.75" fill="none"/>
    </g>
    <g id="flag" transform="translate(13.888 11.296)">
        <path id="Path_20" data-name="Path 20" d="M7.375,2.25A.625.625,0,0,1,8,2.875v16.25a.625.625,0,1,1-1.25,0V2.875A.625.625,0,0,1,7.375,2.25Z" transform="translate(-6.75 -2.25)" fill-rule="evenodd"/>
        <path id="Path_21" data-name="Path 21" d="M8.212,4.7a5.517,5.517,0,0,1,3.423-1.322,3.305,3.305,0,0,1,1.869.7l.04.027a2.205,2.205,0,0,0,1.216.52,2.188,2.188,0,0,0,.734-.157q.376-.143.741-.313c.073-.034.146-.066.225-.1a6.4,6.4,0,0,1,2.675-.68A.625.625,0,0,1,19.76,4v7.5a.625.625,0,0,1-.625.625,5.205,5.205,0,0,0-2.167.571l-.2.088c-.275.125-.566.256-.848.359a3.4,3.4,0,0,1-1.161.232,3.305,3.305,0,0,1-1.869-.7l-.04-.027a2.205,2.205,0,0,0-1.216-.52c-1.041,0-1.522.307-2.779,1.145A.625.625,0,0,1,8.212,12.2a5.514,5.514,0,0,1,3.423-1.323,3.305,3.305,0,0,1,1.869.7l.04.027a2.205,2.205,0,0,0,1.216.52,2.188,2.188,0,0,0,.734-.157c.234-.085.47-.191.741-.313.073-.034.146-.066.225-.1a7.185,7.185,0,0,1,2.05-.64V4.679a6.471,6.471,0,0,0-1.542.517l-.2.088c-.275.125-.566.256-.848.359a3.4,3.4,0,0,1-1.161.232,3.305,3.305,0,0,1-1.869-.7l-.04-.027a2.205,2.205,0,0,0-1.216-.52c-1.041,0-1.522.307-2.779,1.145a.625.625,0,0,1-.693-1.04l.05-.032Z" transform="translate(-7.26 -2.75)" fill-rule="evenodd"/>
    </g>
</svg>
