<svg xmlns="http://www.w3.org/2000/svg" width="40" height="40" viewBox="0 0 40 40">
    <g id="Ellipse_151" data-name="Ellipse 151" fill="#fff" stroke="#7f1703" stroke-width="0.5">
        <circle cx="20" cy="20" r="20" stroke="none"/>
        <circle cx="20" cy="20" r="19.75" fill="none"/>
    </g>
    <g id="language-line" transform="translate(10.675 11.435)">
    <path id="Path_78262" data-name="Path 78262" d="M9.966,3.423,9.073,2.5A4.678,4.678,0,0,0,1.745,3.8c-.651,1.274-.8,3.114.391,5.462,1.146,2.261,3.53,4.969,7.83,7.919,4.3-2.95,6.683-5.658,7.83-7.919,1.19-2.349,1.044-4.188.391-5.462a4.679,4.679,0,0,0-7.328-1.3Zm0,15.262C-9.133,6.063,4.086-3.787,9.747,1.423c.075.069.148.14.219.213q.105-.11.219-.212C15.846-3.79,29.066,6.062,9.966,18.684Z" transform="translate(-0.001 0.001)"/>
    </g>
</svg>
