<svg xmlns="http://www.w3.org/2000/svg" width="14.265" height="12.928" viewBox="0 0 14.265 12.928">
    <g id="filter-line" transform="translate(-10.66 -21.32)">
        <path id="Path_79776" data-name="Path 79776" d="M24.479,21.32H11.106a.446.446,0,0,0-.446.446v.744a.8.8,0,0,0,.236.566l5.113,5.189v4.547l.892.339V28.007a.446.446,0,0,0-.129-.317l-5.22-5.216v-.263H24.033v.272l-5.2,5.207a.446.446,0,0,0-.147.317V33.9l.892.352V28.23L24.689,23.1a.807.807,0,0,0,.236-.58v-.758A.446.446,0,0,0,24.479,21.32Z"/>
    </g>
</svg>
