<svg width="19" height="19" viewBox="0 0 19 19" fill="none" xmlns="http://www.w3.org/2000/svg">
    <path fill-rule="evenodd" clip-rule="evenodd" d="M18.5996 8.83281V17.5C18.5996 18.3284 17.928 19 17.0996 19H13.3496C12.5212 19 11.8496 18.3284 11.8496 17.5V13.75C11.8496 13.3358 11.5138 13 11.0996 13H8.09961C7.6854 13 7.34961 13.3358 7.34961 13.75V17.5C7.34961 18.3284 6.67804 19 5.84961 19H2.09961C1.27118 19 0.599609 18.3284 0.599609 17.5V8.83281C0.599545 8.41309 0.775339 8.01254 1.0843 7.72844L8.5843 0.652188L8.59461 0.641875C9.1668 0.121501 10.0409 0.121501 10.613 0.641875C10.6162 0.645543 10.6197 0.648989 10.6234 0.652188L18.1234 7.72844C18.4292 8.01402 18.6018 8.41437 18.5996 8.83281Z" fill="#1C0D0D"/>
</svg>
