<svg id="Group_73829" data-name="Group 73829" xmlns="http://www.w3.org/2000/svg" width="40" height="40" viewBox="0 0 40 40">
    <g id="Ellipse_145" data-name="Ellipse 145" fill="#fff" stroke="#7f1703" stroke-width="0.5">
        <circle cx="20" cy="20" r="20" stroke="none"/>
        <circle cx="20" cy="20" r="19.75" fill="none"/>
    </g>
    <g id="language-line" transform="translate(10.675 11.435)">
        <path id="Path_19826" data-name="Path 19826" d="M18.265,3H8.971V5.9h1.162V4.162h8.132a.549.549,0,0,1,.581.581v6.39a.549.549,0,0,1-.581.581H10.713V15.78H7.635L5.485,17.464V15.78H3.743a.549.549,0,0,1-.581-.581V8.809a.549.549,0,0,1,.581-.581h7.552V7.066H3.743A1.712,1.712,0,0,0,2,8.809V15.2a1.712,1.712,0,0,0,1.743,1.743h.581V19.9l3.66-2.963h3.892V12.875h6.39a1.712,1.712,0,0,0,1.743-1.743V4.743A1.712,1.712,0,0,0,18.265,3Z" transform="translate(-2 -3)"/>
        <path id="Path_19827" data-name="Path 19827" d="M6.2,19.17H7.594l.349-.929h1.8l.349.929h1.394L9.511,14H8.117Zm2.614-3.718.581,1.8H8.233Z" transform="translate(-3.76 -7.61)"/>
        <path id="Path_19828" data-name="Path 19828" d="M20,12.39a5.458,5.458,0,0,0,2.324-.581,5.662,5.662,0,0,0,2.324.581V11.228A3.98,3.98,0,0,1,23.427,11a4.415,4.415,0,0,0,1.22-3.253V7.162H22.9V6H21.743V7.162H20V8.324h3.427a2.92,2.92,0,0,1-1.1,2.091,3.4,3.4,0,0,1-.929-1.22h-1.22A4.223,4.223,0,0,0,21.22,11a3.338,3.338,0,0,1-1.22.232Z" transform="translate(-9.544 -4.257)"/>
    </g>
</svg>
