<svg xmlns="http://www.w3.org/2000/svg" width="50" height="50" viewBox="0 0 50 50">
    <g id="Group_75908" data-name="Group 75908" transform="translate(-24 -573)">
        <g id="Rectangle_20117" data-name="Rectangle 20117" transform="translate(24 573)" fill="#f6f6f6" stroke="#8a8a8a" stroke-width="0.2">
            <rect width="50" height="50" rx="25" stroke="none"/>
            <rect x="0.1" y="0.1" width="49.8" height="49.8" rx="24.9" fill="none"/>
        </g>
        <g id="ios-link" transform="translate(36.993 585.993)">
            <path id="Path_79732" data-name="Path 79732" d="M31.73,79.409l-.07.006a.962.962,0,0,0-.558.262l-3.756,3.756a4.235,4.235,0,0,1-5.989-5.989l3.989-3.989a4.21,4.21,0,0,1,.663-.541,4.274,4.274,0,0,1,.861-.436,4.071,4.071,0,0,1,.872-.215,4.124,4.124,0,0,1,.593-.041c.081,0,.163.006.267.012a4.223,4.223,0,0,1,2.721,1.221,4.169,4.169,0,0,1,.994,1.587.915.915,0,0,0,1.122.587c.006,0,.012-.006.017-.006s.012,0,.012-.006a.908.908,0,0,0,.611-1.111,5.269,5.269,0,0,0-1.43-2.384,6.121,6.121,0,0,0-3.349-1.7c-.11-.017-.221-.035-.331-.047a6,6,0,0,0-.645-.035c-.151,0-.3.006-.448.017a5.865,5.865,0,0,0-.942.145c-.064.012-.122.029-.186.047a6.048,6.048,0,0,0-1.134.424A5.973,5.973,0,0,0,24,72.129l-3.989,3.989A6.134,6.134,0,0,0,18.24,80.45a6.114,6.114,0,0,0,10.431,4.32l3.8-3.8A.92.92,0,0,0,31.73,79.409Z" transform="translate(-18.24 -62.366)" fill="#ae0000"/>
            <path id="Path_79733" data-name="Path 79733" d="M86.843,20.025a6.128,6.128,0,0,0-8.646,0l-3.7,3.7a.935.935,0,0,0,.587,1.593.944.944,0,0,0,.738-.267l3.71-3.7a4.235,4.235,0,0,1,5.989,5.989l-3.989,3.989a4.21,4.21,0,0,1-.663.541,4.274,4.274,0,0,1-.861.436,4.071,4.071,0,0,1-.872.215,4.123,4.123,0,0,1-.593.041c-.081,0-.169-.006-.267-.012a4.179,4.179,0,0,1-3.675-2.7.929.929,0,0,0-1.111-.57.939.939,0,0,0-.657,1.192,5.311,5.311,0,0,0,1.378,2.18l.012.012a6.122,6.122,0,0,0,3.681,1.75,6,6,0,0,0,.645.035q.227,0,.454-.017a6.647,6.647,0,0,0,1.122-.186,6.048,6.048,0,0,0,1.134-.424,5.973,5.973,0,0,0,1.611-1.157l3.989-3.989a6.12,6.12,0,0,0-.012-8.652Z" transform="translate(-64.439 -18.24)" fill="#ae0000"/>
        </g>
    </g>
</svg>
