<svg xmlns="http://www.w3.org/2000/svg" width="17.143" height="10" viewBox="0 0 17.143 20">
    <g id="lock" transform="translate(-24 -12)">
        <g id="Group_73826" data-name="Group 73826" transform="translate(24 12)">
            <path id="Path_78260" data-name="Path 78260" d="M38.286,20.571a2.857,2.857,0,0,1,2.857,2.857v5.714A2.857,2.857,0,0,1,38.286,32H26.857A2.857,2.857,0,0,1,24,29.143V23.429a2.857,2.857,0,0,1,2.857-2.857V17.714a5.714,5.714,0,1,1,11.429,0ZM32.571,13.9a3.81,3.81,0,0,1,3.81,3.81v2.857H28.762V17.714a3.81,3.81,0,0,1,3.81-3.81Zm5.714,8.571H26.857a.952.952,0,0,0-.952.952v5.714a.952.952,0,0,0,.952.952H38.286a.952.952,0,0,0,.952-.952V23.429A.952.952,0,0,0,38.286,22.476Z" transform="translate(-24 -12)" fill="#7f1703" fill-rule="evenodd"/>
        </g>
    </g>
</svg>
