<svg xmlns="http://www.w3.org/2000/svg" width="35" height="35" viewBox="0 0 35 35">
    <g id="Group_73836" data-name="Group 73836" transform="translate(-5146 1858)">
        <circle id="Ellipse_158" data-name="Ellipse 158" cx="17.5" cy="17.5" r="17.5" transform="translate(5146 -1858)" fill="#7f1703"/>
        <g id="md-log-out" transform="translate(5154.771 -1849.23)">
            <path id="Path_19861" data-name="Path 19861" d="M13.5,16.256h8.088l-1.859,1.906L21,19.436,25.1,15.343,21,11.25l-1.322,1.275,1.906,1.906H13.5v1.825Z" transform="translate(-7.36 -6.475)" fill="#fff"/>
            <path id="Path_19862" data-name="Path 19862" d="M12.231,19.292a7.048,7.048,0,0,1,0-14.1A6.984,6.984,0,0,1,17.2,7.251L18.49,5.959a9.415,9.415,0,0,0-1.181-.989,8.874,8.874,0,1,0,1.178,13.554L17.2,17.237a6.979,6.979,0,0,1-4.967,2.055Z" transform="translate(-3.375 -3.375)" fill="#fff"/>
            <path id="Path_19863" data-name="Path 19863" d="M31.476,18.013l-.036-.036.036-.036.036.036Z" transform="translate(-14.421 -9.108)" fill="#fff"/>
        </g>
    </g>
</svg>
