<svg xmlns="http://www.w3.org/2000/svg" width="24.266" height="24.981" viewBox="0 0 24.266 24.981">
    <g id="bell" transform="translate(1.654 0.527)">
        <g id="Group_72605" data-name="Group 72605">
            <path id="Path_76537" data-name="Path 76537" d="M13.48,23.952a2.994,2.994,0,0,0,2.994-2.994H10.485A2.994,2.994,0,0,0,13.48,23.952Zm9.312-5.988a3.809,3.809,0,0,0,1.168,1.5H3a3.809,3.809,0,0,0,1.168-1.5C5.515,15.269,5.994,10.3,5.994,8.981a7.488,7.488,0,0,1,6-7.337,1.5,1.5,0,1,1,2.979,0,7.488,7.488,0,0,1,6,7.337C20.965,10.3,21.444,15.269,22.791,17.964Z" transform="translate(-3 0.003)" fill="none" stroke="#707070" stroke-width="1"/>
        </g>
    </g>
</svg>
