<svg width="24" height="25" viewBox="0 0 24 25" fill="none" xmlns="http://www.w3.org/2000/svg">
    <g clip-path="url(#clip0_947_708)">
        <path fill-rule="evenodd" clip-rule="evenodd" d="M20.7938 16.9944C20.2734 16.0981 19.5 13.5622 19.5 10.25C19.5 6.10786 16.1421 2.75 12 2.75C7.85786 2.75 4.5 6.10786 4.5 10.25C4.5 13.5631 3.72563 16.0981 3.20531 16.9944C2.93487 17.4581 2.9329 18.0311 3.20016 18.4967C3.46741 18.9623 3.96313 19.2496 4.5 19.25H8.32594C8.68267 20.9956 10.2184 22.2492 12 22.2492C13.7816 22.2492 15.3173 20.9956 15.6741 19.25H19.5C20.0367 19.2493 20.5321 18.9619 20.7991 18.4963C21.0662 18.0308 21.0641 17.458 20.7938 16.9944ZM12 20.75C11.0467 20.7497 10.1971 20.1487 9.87938 19.25H14.1206C13.8029 20.1487 12.9533 20.7497 12 20.75ZM4.5 17.75C5.22188 16.5088 6 13.6325 6 10.25C6 6.93629 8.68629 4.25 12 4.25C15.3137 4.25 18 6.93629 18 10.25C18 13.6297 18.7763 16.5059 19.5 17.75H4.5Z" fill="#1C0D0D"/>
    </g>
    <defs>
        <clipPath id="clip0_947_708">
            <rect width="24" height="24" fill="white" transform="translate(0 0.5)"/>
        </clipPath>
    </defs>
</svg>
