<svg id="Group_73833" data-name="Group 73833" xmlns="http://www.w3.org/2000/svg" width="40" height="40" viewBox="0 0 40 40">
    <g id="Ellipse_153" data-name="Ellipse 153" fill="#fff" stroke="#7f1703" stroke-width="0.5">
        <circle cx="20" cy="20" r="20" stroke="none"/>
        <circle cx="20" cy="20" r="19.75" fill="none"/>
    </g>
    <g id="money" transform="translate(12.58 14.144)">
        <path id="Path_19847" data-name="Path 19847" d="M2.25,24.75H16.584v1.024H2.25Z" transform="translate(-2.25 -15.536)"/>
        <path id="Path_19848" data-name="Path 19848" d="M2.25,29.25H16.584v1.024H2.25Z" transform="translate(-2.25 -17.988)"/>
        <path id="Path_19849" data-name="Path 19849" d="M25.774,11.25A1.024,1.024,0,1,0,26.8,12.274,1.024,1.024,0,0,0,25.774,11.25Z" transform="translate(-14.512 -8.179)"/>
        <path id="Path_19850" data-name="Path 19850" d="M15.548,13.1A2.048,2.048,0,1,1,17.6,11.048,2.048,2.048,0,0,1,15.548,13.1Zm0-3.071a1.024,1.024,0,1,0,1.024,1.024A1.024,1.024,0,0,0,15.548,10.024Z" transform="translate(-8.381 -6.952)"/>
        <path id="Path_19851" data-name="Path 19851" d="M7.774,11.25A1.024,1.024,0,1,0,8.8,12.274,1.024,1.024,0,0,0,7.774,11.25Z" transform="translate(-4.702 -8.179)"/>
        <path id="Path_19852" data-name="Path 19852" d="M15.56,12.691H3.274A1.027,1.027,0,0,1,2.25,11.667V5.524A1.027,1.027,0,0,1,3.274,4.5H15.56a1.027,1.027,0,0,1,1.024,1.024v6.143A1.025,1.025,0,0,1,15.56,12.691Zm0-7.167H3.274v6.143H15.56Z" transform="translate(-2.25 -4.5)"/>
    </g>
</svg>
