<svg id="Group_73834" data-name="Group 73834" xmlns="http://www.w3.org/2000/svg" width="40" height="40" viewBox="0 0 40 40">
    <g id="Ellipse_154" data-name="Ellipse 154" fill="#fff" stroke="#7f1703" stroke-width="0.5">
        <circle cx="20" cy="20" r="20" stroke="none"/>
        <circle cx="20" cy="20" r="19.75" fill="none"/>
    </g>
    <g id="command" transform="translate(11.642 11.642)">
        <path id="Path_12" data-name="Path 12" d="M3.433,5.207A1.774,1.774,0,0,0,5.207,6.982H6.982V5.207a1.774,1.774,0,0,0-3.549,0ZM8.164,8.164V5.207A2.957,2.957,0,1,0,5.207,8.164Zm9.463-2.957a1.774,1.774,0,0,1-1.774,1.774H14.079V5.207a1.774,1.774,0,1,1,3.549,0ZM12.9,8.164V5.207a2.957,2.957,0,1,1,2.957,2.957ZM3.433,15.853a1.774,1.774,0,0,1,1.774-1.774H6.982v1.774a1.774,1.774,0,0,1-3.549,0ZM8.164,12.9v2.957A2.957,2.957,0,1,1,5.207,12.9Zm9.463,2.957a1.774,1.774,0,0,0-1.774-1.774H14.079v1.774a1.774,1.774,0,0,0,3.549,0ZM12.9,12.9v2.957A2.957,2.957,0,1,0,15.853,12.9Z" transform="translate(-2.25 -2.25)" fill-rule="evenodd"/>
        <path id="Path_13" data-name="Path 13" d="M17.164,12.433H12.433v4.732h4.732ZM11.25,11.25v7.1h7.1v-7.1Z" transform="translate(-6.518 -6.518)" fill-rule="evenodd"/>
    </g>
</svg>
