<svg id="Group_73835" data-name="Group 73835" xmlns="http://www.w3.org/2000/svg" width="40" height="40" viewBox="0 0 40 40">
    <g id="Ellipse_155" data-name="Ellipse 155" fill="#fff" stroke="#7f1703" stroke-width="0.5">
        <circle cx="20" cy="20" r="20" stroke="none"/>
        <circle cx="20" cy="20" r="19.75" fill="none"/>
    </g>
    <g id="notes" transform="translate(13.677 12.975)">
        <path id="Path_19853" data-name="Path 19853" d="M9,8.142A.642.642,0,0,1,9.642,7.5h6.415a.642.642,0,0,1,0,1.283H9.642A.642.642,0,0,1,9,8.142Z" transform="translate(-6.434 -4.934)"/>
        <path id="Path_19854" data-name="Path 19854" d="M9,14.142a.642.642,0,0,1,.642-.642h6.415a.642.642,0,0,1,0,1.283H9.642A.642.642,0,0,1,9,14.142Z" transform="translate(-6.434 -8.368)"/>
        <path id="Path_19855" data-name="Path 19855" d="M9.642,19.5a.642.642,0,1,0,0,1.283h6.415a.642.642,0,0,0,0-1.283Z" transform="translate(-6.434 -11.802)"/>
        <path id="Path_19856" data-name="Path 19856" d="M9,26.142a.642.642,0,0,1,.642-.642h2.566a.642.642,0,1,1,0,1.283H9.642A.642.642,0,0,1,9,26.142Z" transform="translate(-6.434 -15.236)"/>
        <path id="Path_19857" data-name="Path 19857" d="M3,3.425A1.925,1.925,0,0,1,4.925,1.5h8.981A1.925,1.925,0,0,1,15.83,3.425V13.689a1.925,1.925,0,0,1-1.925,1.925H4.925A1.925,1.925,0,0,1,3,13.689Zm1.925-.642h8.981a.642.642,0,0,1,.642.642V13.689a.642.642,0,0,1-.642.642H4.925a.642.642,0,0,1-.642-.642V3.425a.642.642,0,0,1,.642-.642Z" transform="translate(-3 -1.5)" fill-rule="evenodd"/>
    </g>
</svg>
